name Walk1.mot
datacolumns 19
datarows 17
range 1.74100000 1.75700000
endheader

                time	   L_ground_force_vx	   L_ground_force_vy	   L_ground_force_vz	   L_ground_force_px	   L_ground_force_py	   L_ground_force_pz	   R_ground_force_vx	   R_ground_force_vy	   R_ground_force_vz	   R_ground_force_px	   R_ground_force_py	   R_ground_force_pz	   L_ground_torque_x	   L_ground_torque_y	   L_ground_torque_z	   R_ground_torque_x	   R_ground_torque_y	   R_ground_torque_z	
          1.74100000	         22.36984058	        935.87099197	         64.78563574	         -0.10356851	          0.00000000	         -0.03780006	         -0.00139983	          0.07434727	          0.00593475	          0.00014132	          0.00000000	          0.00004505	          0.00000000	         -1.18272440	          0.00000000	          0.00000000	         -0.00023649	          0.00000000	
          1.74200000	         23.03839122	        938.17981017	         65.08737490	         -0.10342145	          0.00000000	         -0.03783154	         -0.00230928	          0.08625955	          0.00673898	          0.00015465	          0.00000000	          0.00004894	          0.00000000	         -1.20226783	          0.00000000	          0.00000000	         -0.00011904	          0.00000000	
          1.74300000	         23.72098971	        940.50707261	         65.39010739	         -0.10327614	          0.00000000	         -0.03786219	         -0.00329370	          0.09892254	          0.00759011	          0.00016858	          0.00000000	          0.00005299	          0.00000000	         -1.22196467	          0.00000000	          0.00000000	          0.00000981	          0.00000000	
          1.74400000	         24.41762008	        942.85230026	         65.69372482	         -0.10313253	          0.00000000	         -0.03789198	         -0.00435600	          0.11235369	          0.00848898	          0.00018311	          0.00000000	          0.00005720	          0.00000000	         -1.24180971	          0.00000000	          0.00000000	          0.00015059	          0.00000000	
          1.74500000	         25.12825883	        945.21500353	         65.99811438	         -0.10299061	          0.00000000	         -0.03792094	         -0.00549902	          0.12656893	          0.00943633	          0.00019823	          0.00000000	          0.00006156	          0.00000000	         -1.26179724	          0.00000000	          0.00000000	          0.00030384	          0.00000000	
          1.74600000	         25.85287596	        947.59468175	         66.30315882	         -0.10285034	          0.00000000	         -0.03794906	         -0.00672554	          0.14158240	          0.01043273	          0.00021394	          0.00000000	          0.00006608	          0.00000000	         -1.28192114	          0.00000000	          0.00000000	          0.00047007	          0.00000000	
          1.74700000	         26.59143634	        949.99082233	         66.60873699	         -0.10271171	          0.00000000	         -0.03797635	         -0.00803827	          0.15740627	          0.01147864	          0.00023023	          0.00000000	          0.00007074	          0.00000000	         -1.30217533	          0.00000000	          0.00000000	          0.00064981	          0.00000000	
          1.74800000	         27.34390147	        952.40290002	         66.91472463	         -0.10257469	          0.00000000	         -0.03800283	         -0.00943978	          0.17405050	          0.01257434	          0.00024708	          0.00000000	          0.00007554	          0.00000000	         -1.32255434	          0.00000000	          0.00000000	          0.00084356	          0.00000000	
          1.74900000	         28.11023150	        954.83037646	         67.22099511	         -0.10243925	          0.00000000	         -0.03802851	         -0.01093255	          0.19152259	          0.01371992	          0.00026447	          0.00000000	          0.00008048	          0.00000000	         -1.34305396	          0.00000000	          0.00000000	          0.00105184	          0.00000000	
          1.75000000	         28.89038708	        957.27270022	         67.52741965	         -0.10230536	          0.00000000	         -0.03805340	         -0.01251887	          0.20982730	          0.01491530	          0.00028239	          0.00000000	          0.00008554	          0.00000000	         -1.36367173	          0.00000000	          0.00000000	          0.00127512	          0.00000000	
          1.75100000	         29.68433061	        959.72930745	         67.83386706	         -0.10217300	          0.00000000	         -0.03807751	         -0.01420091	          0.22896641	          0.01616015	          0.00030081	          0.00000000	          0.00009072	          0.00000000	         -1.38440707	          0.00000000	          0.00000000	          0.00151389	          0.00000000	
          1.75200000	         30.49202651	        962.19962306	         68.14020319	         -0.10204214	          0.00000000	         -0.03810085	         -0.01598060	          0.24893841	          0.01745395	          0.00031970	          0.00000000	          0.00009600	          0.00000000	         -1.40526111	          0.00000000	          0.00000000	          0.00176860	          0.00000000	
          1.75300000	         31.31344070	        964.68306223	         68.44629031	         -0.10191274	          0.00000000	         -0.03812344	         -0.01785967	          0.26973822	          0.01879588	          0.00033902	          0.00000000	          0.00010138	          0.00000000	         -1.42623639	          0.00000000	          0.00000000	          0.00203966	          0.00000000	
          1.75400000	         32.14853971	        967.17903186	         68.75198665	         -0.10178477	          0.00000000	         -0.03814528	         -0.01983959	          0.29135685	          0.02018490	          0.00035874	          0.00000000	          0.00010685	          0.00000000	         -1.44733630	          0.00000000	          0.00000000	          0.00232750	          0.00000000	
          1.75500000	         32.99728983	        969.68693168	         69.05714637	         -0.10165821	          0.00000000	         -0.03816640	         -0.02192156	          0.31378112	          0.02161962	          0.00037880	          0.00000000	          0.00011237	          0.00000000	         -1.46856473	          0.00000000	          0.00000000	          0.00263247	          0.00000000	
          1.75600000	         33.85965675	        972.20615484	         69.36162026	         -0.10153301	          0.00000000	         -0.03818681	         -0.02410647	          0.33699328	          0.02309838	          0.00039917	          0.00000000	          0.00011795	          0.00000000	         -1.48992563	          0.00000000	          0.00000000	          0.00295490	          0.00000000	
          1.75700000	         34.73560576	        974.73608789	         69.66525681	         -0.10140916	          0.00000000	         -0.03820653	         -0.02639485	          0.36097068	          0.02461915	          0.00041978	          0.00000000	          0.00012356	          0.00000000	         -1.51142295	          0.00000000	          0.00000000	          0.00329510	          0.00000000	
